<svg width="998" height="998" viewBox="0 0 998 998" fill="none" xmlns="http://www.w3.org/2000/svg">
<path d="M895.582 300.095L692.361 403.512C685.718 406.905 683.189 414.763 686.079 421.628C695.903 444.833 701.342 470.326 701.342 497.084C701.342 541.295 686.551 582.044 661.663 614.683C660.078 616.781 658.462 618.848 656.776 620.886C621.172 663.893 567.363 691.303 507.153 691.303C483.249 691.303 460.349 686.947 439.195 679.048C436.726 678.115 434.288 677.161 431.859 676.158C389.712 658.393 355.171 626.155 334.378 585.697C333.174 583.379 332.02 581.01 330.906 578.621C319.436 553.821 312.963 526.22 312.963 497.084C312.963 445.074 333.455 397.892 366.741 363.034C368.528 361.128 370.394 359.271 372.291 357.434C407.233 323.681 454.729 302.855 507.153 302.855C529.38 302.855 550.715 306.598 570.595 313.494C577.669 315.912 585.326 312.861 588.236 305.976L665.336 123.5C677.72 94.1328 669.772 77.0605 654.318 71.701C608.206 55.7327 558.703 47.071 507.153 47.071C378.713 47.071 262.908 100.988 180.931 187.343C179.135 189.24 177.278 191.107 175.502 193.044C102.065 273.116 57.208 379.856 57.208 497.084C57.208 567.993 73.6555 635.027 102.858 694.685C104.022 697.054 105.256 699.352 106.45 701.711C154.519 795.654 234.539 870.577 332.301 911.838C334.719 912.882 337.188 913.765 339.646 914.728C391.428 935.544 447.925 947.087 507.153 947.087C643.399 947.087 765.386 886.465 847.915 790.766C849.631 788.779 851.397 786.842 853.073 784.824C918.011 706.809 957.097 606.533 957.097 497.084C957.097 428.935 941.854 364.379 914.719 306.488C911.387 299.352 902.617 296.522 895.582 300.095Z" fill="#B92C8A"/>
<path d="M708.462 344.132C743.324 326.568 861.829 266.83 903.505 245.814C911.242 241.929 913.62 231.953 908.492 224.998C866.334 167.939 814.262 118.8 754.754 79.9582C747.448 75.1807 737.534 78.262 734.182 86.3214C716.089 129.8 664.759 252.95 649.887 288.68C647.418 294.561 649.456 301.025 654.513 304.909C668.151 315.398 680.605 327.321 691.713 340.419C695.918 345.387 702.662 347.063 708.462 344.132Z" fill="#B92C8A"/>
</svg>
