<svg width="4858" height="1718" viewBox="0 0 4858 1718" fill="none" xmlns="http://www.w3.org/2000/svg">
<path d="M462.964 23.7938C686.677 23.7938 810.059 102.772 893.953 275.513C907.109 301.839 898.88 321.571 870.892 333.083L801.84 364.357C770.571 377.505 760.716 374.233 745.895 342.969C686.677 229.445 607.711 176.802 462.964 176.802C280.385 176.802 188.253 239.32 188.253 362.721C188.253 449.899 240.897 494.321 323.155 519.001C384.018 538.743 425.132 543.672 504.088 551.892C597.866 563.424 652.126 570.008 732.749 601.272C773.842 617.722 805.132 637.474 829.798 658.842C877.515 703.264 916.973 780.586 916.973 884.225C916.973 1106.33 752.488 1241.26 461.329 1241.26C219.512 1241.26 86.2759 1150.75 12.2568 959.921C0.736521 928.647 7.32958 915.489 40.2247 903.967L107.671 879.297C135.619 867.775 150.42 874.359 163.586 905.623C217.876 1029 316.572 1091.54 461.329 1091.54C658.729 1091.54 757.405 1024.08 757.405 887.527C757.405 820.08 727.821 774.002 666.948 747.686C606.095 723.016 558.388 714.786 466.256 703.264C380.726 695.044 341.238 688.46 263.928 668.708C224.439 660.488 193.21 647.33 168.534 632.506C92.8589 591.386 18.8399 510.771 25.4028 372.577C25.4028 161.998 184.981 23.7938 462.964 23.7938Z" fill="black"/>
<path d="M1693.45 380.977C1725.17 380.977 1733.52 389.328 1733.52 421.053V1284.21C1733.52 1524.63 1613.33 1644.84 1372.96 1644.84C1211.04 1644.84 1099.19 1588.07 1034.08 1474.53C1015.72 1446.16 1022.4 1426.13 1050.77 1411.1L1099.19 1384.38C1130.89 1369.37 1144.25 1372.7 1164.3 1399.41C1207.7 1474.53 1276.14 1511.27 1371.3 1511.27C1513.16 1511.27 1584.95 1437.82 1584.95 1290.89V1200.73C1499.84 1224.12 1421.37 1235.8 1351.24 1235.8C1125.91 1235.8 1012.39 1125.61 1012.39 905.221V421.053C1012.39 389.328 1020.73 380.977 1052.43 380.977H1122.54C1150.92 380.977 1160.95 392.68 1160.95 421.053V900.203C1160.95 1032.1 1231.06 1098.89 1371.3 1098.89C1438.06 1098.89 1509.83 1087.21 1584.95 1063.83V421.053C1584.95 389.328 1596.64 380.977 1625.01 380.977H1693.45Z" fill="black"/>
<path d="M2234.36 355.934C2459.7 355.934 2573.25 466.137 2573.25 686.511V1202.4C2573.25 1234.13 2561.54 1242.48 2533.15 1242.48H2463.05C2434.66 1242.48 2422.99 1234.13 2422.99 1202.4V691.519C2422.99 559.628 2352.87 492.844 2214.33 492.844C2147.56 492.844 2082.44 502.861 2020.69 522.894C2007.33 527.902 2000.66 537.929 2000.66 552.964V1202.4C2000.66 1234.13 1992.3 1242.48 1960.6 1242.48H1890.48C1862.11 1242.48 1852.08 1230.8 1852.08 1202.4V506.203C1852.08 452.778 1863.76 434.411 1915.53 412.701C2007.33 374.301 2114.16 355.934 2234.36 355.934Z" fill="black"/>
<path d="M3786.3 1202.4C3786.3 1234.12 3774.62 1242.46 3746.25 1242.46H3677.79C3646.08 1242.46 3637.72 1234.12 3637.72 1202.4V47.0763C3637.72 15.3505 3646.08 7 3677.79 7H3746.25C3774.62 7 3786.3 15.3505 3786.3 47.0763V1202.4Z" fill="black"/>
<path d="M4079.32 152.88C4079.32 201.237 4040.12 240.46 3991.76 240.46C3943.4 240.46 3904.19 201.237 3904.19 152.88C3904.19 104.514 3943.4 65.2904 3991.76 65.2904C4040.12 65.2904 4079.32 104.514 4079.32 152.88ZM4026.69 380.983C4058.41 380.983 4066.76 389.323 4066.76 421.059V1202.4C4066.76 1234.13 4058.41 1242.49 4026.69 1242.49H3956.59C3924.86 1242.49 3916.51 1234.13 3916.51 1202.4V421.059C3916.51 389.323 3924.86 380.983 3956.59 380.983H4026.69Z" fill="black"/>
<path d="M4512.44 355.934C4764.52 355.934 4858 484.493 4858 693.175V1128.95C4858 1187.39 4844.64 1204.08 4797.9 1224.1C4731.13 1252.48 4635.97 1267.51 4510.78 1267.51C4372.25 1267.51 4275.42 1245.81 4223.68 1202.4C4171.9 1160.67 4145.2 1093.87 4145.2 1002.06C4145.2 808.396 4248.71 739.946 4517.46 739.946C4577.57 739.946 4640.98 743.278 4707.76 751.629V688.187C4707.76 559.628 4655.99 489.502 4509.11 489.502C4412.3 489.502 4343.84 522.894 4302.13 591.333C4282.09 618.051 4278.75 623.069 4247.03 611.387L4195.3 588.001C4166.88 576.319 4160.22 557.952 4173.57 531.234C4233.67 414.377 4347.19 355.934 4512.44 355.934ZM4707.76 875.16C4619.27 866.819 4549.16 861.801 4500.77 861.801C4347.19 861.801 4295.44 903.563 4295.44 1002.06C4295.44 1097.23 4342.18 1142.3 4497.43 1142.3C4582.56 1142.3 4644.32 1135.63 4682.73 1122.27C4699.41 1115.59 4707.76 1103.89 4707.76 1085.53V875.16Z" fill="black"/>
<path d="M3492.58 614.095L3289.36 717.512C3282.72 720.904 3280.19 728.763 3283.08 735.628C3292.9 758.833 3298.34 784.326 3298.34 811.084C3298.34 855.295 3283.55 896.044 3258.66 928.683C3257.08 930.781 3255.46 932.848 3253.78 934.886C3218.17 977.893 3164.36 1005.3 3104.15 1005.3C3080.25 1005.3 3057.35 1000.95 3036.19 993.048C3033.73 992.115 3031.29 991.161 3028.86 990.157C2986.71 972.393 2952.17 940.155 2931.38 899.697C2930.17 897.379 2929.02 895.01 2927.91 892.621C2916.44 867.821 2909.96 840.22 2909.96 811.084C2909.96 759.074 2930.45 711.892 2963.74 677.034C2965.53 675.127 2967.39 673.271 2969.29 671.434C3004.23 637.681 3051.73 616.855 3104.15 616.855C3126.38 616.855 3147.72 620.598 3167.59 627.493C3174.67 629.912 3182.33 626.861 3185.24 619.976L3262.34 437.5C3274.72 408.133 3266.77 391.06 3251.32 385.701C3205.21 369.733 3155.7 361.071 3104.15 361.071C2975.71 361.071 2859.91 414.988 2777.93 501.343C2776.13 503.24 2774.28 505.107 2772.5 507.044C2699.07 587.116 2654.21 693.856 2654.21 811.084C2654.21 881.993 2670.66 949.027 2699.86 1008.69C2701.02 1011.05 2702.26 1013.35 2703.45 1015.71C2751.52 1109.65 2831.54 1184.58 2929.3 1225.84C2931.72 1226.88 2934.19 1227.76 2936.65 1228.73C2988.43 1249.54 3044.93 1261.09 3104.15 1261.09C3240.4 1261.09 3362.39 1200.47 3444.92 1104.77C3446.63 1102.78 3448.4 1100.84 3450.07 1098.82C3515.01 1020.81 3554.1 920.533 3554.1 811.084C3554.1 742.935 3538.85 678.379 3511.72 620.488C3508.39 613.352 3499.62 610.522 3492.58 614.095Z" fill="#B92C8A"/>
<path d="M3305.46 658.132C3340.32 640.568 3458.83 580.83 3500.5 559.814C3508.24 555.929 3510.62 545.953 3505.49 538.998C3463.33 481.939 3411.26 432.8 3351.75 393.958C3344.45 389.181 3334.53 392.262 3331.18 400.321C3313.09 443.8 3261.76 566.95 3246.89 602.68C3244.42 608.561 3246.46 615.025 3251.51 618.909C3265.15 629.398 3277.6 641.321 3288.71 654.419C3292.92 659.387 3299.66 661.063 3305.46 658.132Z" fill="#B92C8A"/>
</svg>
